<svg width="115" height="29" viewBox="0 0 115 29" fill="none" xmlns="http://www.w3.org/2000/svg">
<path d="M17.7108 20.1726L23 25.5M20.5556 13.2778C20.5556 18.6779 16.1779 23.0556 10.7778 23.0556C5.37766 23.0556 1 18.6779 1 13.2778C1 7.87766 5.37766 3.5 10.7778 3.5C16.1779 3.5 20.5556 7.87766 20.5556 13.2778Z" stroke="white" stroke-width="2" stroke-linecap="round" stroke-linejoin="round"/>
<path d="M59.5 3.5C57.9813 3.5 56.6063 4.24343 55.6112 5.44555L54.2434 7.08974C54.109 7.25204 53.8917 7.25204 53.7573 7.08974C53.7573 7.08974 52.3923 5.44181 52.3895 5.44555C51.3937 4.24343 50.0187 3.5 48.5 3.5C45.4623 3.5 43 6.47332 43 10.1415C43 11.5271 43.352 12.8131 43.9532 13.8774C43.9532 13.8774 44.2055 14.3605 44.5039 14.7204C44.8023 15.0803 53.0279 25.0135 53.0279 25.0135C53.2963 25.3377 53.6483 25.5 54 25.5C54.3517 25.5 54.7037 25.3377 54.9721 25.0135C54.9721 25.0135 63.1981 15.0803 63.4961 14.7204C63.7941 14.3605 64.0468 13.8774 64.0468 13.8774C64.648 12.8131 65 11.5271 65 10.1415C65 6.47332 62.5377 3.5 59.5 3.5ZM63.1829 13.8678C63.1829 13.8678 62.9726 14.1791 62.5563 14.6818C62.14 15.1845 54.4861 24.4266 54.4861 24.4266C54.3517 24.5889 54.176 24.6698 54 24.6698C53.824 24.6698 53.6483 24.5889 53.5139 24.4266C53.5139 24.4266 45.86 15.1841 45.4437 14.6814C45.0274 14.1787 44.8171 13.8674 44.8171 13.8674C44.1155 12.8583 43.6875 11.5628 43.6875 10.1415C43.6875 6.932 45.8421 4.33019 48.5 4.33019C49.8289 4.33019 51.0321 4.98023 51.9028 6.03249L51.9059 6.02875L53.5139 7.97015C53.7824 8.29434 54.2176 8.29434 54.4861 7.97015L56.0941 6.02875L56.0972 6.03249C56.9679 4.98023 58.1711 4.33019 59.5 4.33019C62.1579 4.33019 64.3125 6.932 64.3125 10.1415C64.3125 11.5628 63.8845 12.8583 63.1829 13.8678Z" fill="white" stroke="white"/>
<path d="M86.0186 4.25293L86.0625 4.26367L86.459 4.4043C87.0784 4.62495 87.5943 4.80935 88.0215 4.99121L88.4199 5.17383C88.8664 5.39584 89.2093 5.63931 89.4736 5.97168L89.582 6.11914C89.8241 6.47811 89.9549 6.88215 90.0264 7.37695L90.0537 7.5957C90.0823 7.86333 90.0979 8.16856 90.1064 8.51855L90.124 9.25H104.854C105.976 9.25 106.982 9.25141 107.78 9.3418C108.177 9.38676 108.487 9.45023 108.715 9.53125C108.89 9.59357 108.98 9.65363 109.023 9.69238L109.054 9.72266V9.72363C109.188 9.90118 109.279 10.1691 109.242 10.7666C109.205 11.3794 109.046 12.1891 108.814 13.3672L108.157 16.6006C107.946 17.638 107.8 18.3503 107.623 18.8818C107.474 19.3305 107.323 19.5844 107.145 19.7588L107.066 19.8291C106.854 20.0042 106.573 20.1223 106.047 20.1875C105.499 20.2554 104.783 20.2568 103.737 20.2568H96.7598C94.9025 20.2568 93.5899 20.2552 92.5957 20.1123C91.6286 19.9733 91.073 19.7135 90.6631 19.2754H90.6621C90.2046 18.7861 89.958 18.2976 89.8164 17.46C89.6657 16.5685 89.6426 15.3326 89.6426 13.3535V9.88477C89.6426 9.15749 89.6423 8.57762 89.6172 8.09863L89.583 7.65137C89.5316 7.17003 89.437 6.82152 89.2715 6.53027L89.1963 6.40918C89.0102 6.1332 88.7595 5.91919 88.3857 5.71387L88.2178 5.62598C87.9807 5.50812 87.7054 5.39326 87.3818 5.26953L86.2549 4.85938L85.9111 4.7373C85.8069 4.70002 85.736 4.58717 85.752 4.4668L85.7646 4.41406C85.8055 4.29678 85.9151 4.23855 86.0186 4.25293Z" stroke="white" stroke-width="1.5"/>
<path d="M92.1822 24.5C93.2722 24.5 94.1558 25.3954 94.1558 26.4999C94.1558 27.6044 93.2722 28.4999 92.1822 28.4999C91.0921 28.4999 90.2085 27.6044 90.2085 26.4999C90.2085 25.3954 91.0921 24.5 92.1822 24.5Z" fill="white"/>
<path d="M104.024 25.2501C104.69 25.2501 105.248 25.8003 105.248 26.5001C105.248 27.1997 104.69 27.7501 104.024 27.7501C103.358 27.75 102.8 27.1997 102.8 26.5001C102.8 25.8003 103.357 25.2501 104.024 25.2501Z" fill="white" stroke="white" stroke-width="1.5"/>
<circle cx="107" cy="8.5" r="8" fill="#FF0000"/>
<path d="M103.656 10.7955V9.73011L107.428 3.77273H108.267V5.34091H107.734L105.037 9.6108V9.67898H110.206V10.7955H103.656ZM107.794 12.5V10.4716L107.803 9.9858V3.77273H109.051V12.5H107.794Z" fill="white"/>
</svg>
