<svg width="80" height="80" viewBox="0 0 80 80" fill="none" xmlns="http://www.w3.org/2000/svg">
<path d="M49.7022 46.5186C50.9605 45.5417 52.034 44.4188 52.883 43.1847H53.8065C58.2592 43.1847 61.8819 40.2882 61.8819 36.7277V20.2228C61.8819 17.7067 61.3106 15.2513 60.1837 12.9252C58.3615 9.16093 55.2018 5.94583 51.0468 3.62741C46.793 1.2545 41.7933 0 36.5877 0H27.2265C22.0208 0 17.0208 1.2548 12.7666 3.62847C8.63544 5.93388 5.48904 9.12491 3.66303 12.8605C3.65073 12.8826 3.63899 12.905 3.62782 12.9277C2.50279 15.2556 1.93224 17.7098 1.93224 20.2228V34.0799C1.93224 36.0838 3.97102 37.714 6.4772 37.714H7.57383C8.00071 37.714 8.41226 37.6633 8.80449 37.5751C9.16871 40.9904 11.0608 44.1581 14.1084 46.52C6.0755 49.2289 0.692871 55.562 0.692871 62.7016V76.1461C0.692871 76.8925 1.4497 77.4976 2.38315 77.4976H61.4331C62.3669 77.4976 63.1234 76.8925 63.1234 76.1461V62.7016C63.1236 55.5606 57.7379 49.2267 49.7022 46.5186ZM54.3204 40.4581C54.6761 39.5202 54.9076 38.5576 55.0114 37.5757C55.4029 37.6638 55.8136 37.7143 56.2399 37.7143H57.3366C57.6898 37.7143 58.0319 37.6787 58.362 37.6176C57.9003 39.1291 56.2948 40.2852 54.3204 40.4581ZM58.501 26.5171V34.0799C58.501 34.5934 57.9787 35.011 57.3366 35.011H56.2399C55.5978 35.011 55.0756 34.5932 55.0756 34.0799V26.0795C55.0756 25.5661 55.5978 25.1485 56.2399 25.1485H57.3366C57.9787 25.1485 58.501 25.5661 58.501 26.0795V26.5171ZM8.73861 34.0799C8.73861 34.5934 8.21614 35.011 7.57402 35.011H6.47739C5.83528 35.011 5.31299 34.5932 5.31299 34.0799V26.5171V26.0795C5.31299 25.5661 5.83528 25.1485 6.47739 25.1485H7.57402C8.21614 25.1485 8.73861 25.5661 8.73861 26.0795V34.0799ZM8.73861 20.805V22.5709C8.36625 22.4918 7.97724 22.4454 7.57402 22.4454H6.47739C6.07437 22.4454 5.68535 22.4918 5.31299 22.5709V20.223C5.31299 18.067 5.79685 15.962 6.75131 13.9647C6.76267 13.9443 6.77346 13.9237 6.7835 13.9027C8.36095 10.6417 11.0988 7.85558 14.7011 5.84548C18.3851 3.78967 22.7162 2.70319 27.2261 2.70319H36.5873C41.0974 2.70319 45.4283 3.78952 49.1116 5.84442C52.7134 7.85406 55.4517 10.64 57.0305 13.9013C58.0061 15.9152 58.5006 18.042 58.5006 20.223V22.5709C58.1282 22.4918 57.7392 22.4454 57.3362 22.4454H56.2396C55.8365 22.4454 55.4475 22.4918 55.0752 22.5709V20.805C55.0752 12.1452 46.2639 5.09987 35.4335 5.09987H28.3799C17.5499 5.09972 8.73861 12.1451 8.73861 20.805ZM12.1194 20.8051C12.1194 13.6358 19.4141 7.80306 28.3805 7.80306H35.4341C44.4004 7.80306 51.6952 13.6358 51.6952 20.8051V25.0203L44.127 16.5499C43.7662 16.146 43.1576 15.9324 42.5413 15.9945C41.9253 16.0563 41.4009 16.3832 41.1762 16.8459C39.6648 19.9552 37.0458 22.5942 33.6026 24.4781C30.1593 26.3615 26.1344 27.3572 21.9624 27.3572H12.1197L12.1194 20.8051ZM12.1194 36.3626V34.0801V30.0599H21.962C26.818 30.0599 31.5032 28.9011 35.5113 26.7089C38.6853 24.9727 41.2576 22.6847 43.0645 20.0106L51.6952 29.6704V34.0802V36.3628C51.6952 37.787 51.3688 39.1683 50.7333 40.4818H38.472C37.5382 40.4818 36.7817 41.087 36.7817 41.8334C36.7817 42.5797 37.5384 43.1849 38.472 43.1849H48.8759C47.9004 44.2365 46.7034 45.152 45.3314 45.8852C44.2965 46.4378 43.1716 46.8818 41.9866 47.2045C41.9724 47.2081 41.958 47.2117 41.944 47.2155L34.0931 49.3288C32.6894 49.7069 31.1295 49.7069 29.7219 49.3288L21.8717 47.2155C20.669 46.8917 19.5292 46.444 18.4835 45.885C14.4983 43.7569 12.1194 40.1971 12.1194 36.3626ZM42.6984 57.4012L33.5986 53.4848V52.2047C34.1319 52.1336 34.6574 52.029 35.1715 51.8905L41.1557 50.2795L42.6984 57.4012ZM30.2176 52.205V53.485L21.1164 57.4013L22.6603 50.2805L28.6436 51.8911C29.1585 52.0294 29.6844 52.1339 30.2176 52.205ZM30.2176 74.7947H4.07344V62.7019C4.07363 56.1253 9.46818 50.3557 17.2784 48.4732C17.9679 48.8066 18.6865 49.1019 19.4291 49.3579L17.1917 59.6766C17.0814 60.1862 17.3441 60.7016 17.8691 61.0041C18.1625 61.1733 18.5091 61.2593 18.8576 61.2593C19.1319 61.2593 19.4071 61.206 19.6582 61.0979L24.008 59.2264L30.2176 64.1902V74.7947ZM27.1167 57.8889L31.9083 55.8273L36.6984 57.8887L31.9081 61.7189L27.1167 57.8889ZM59.7428 74.7946H33.5986V64.1899L39.8066 59.226L44.156 61.0976C44.4068 61.2055 44.6823 61.259 44.9566 61.259C45.3047 61.259 45.6515 61.173 45.9451 61.0039C46.4699 60.7015 46.7328 60.1862 46.6224 59.6766L44.3871 49.3571C45.1285 49.1015 45.8463 48.806 46.5357 48.4729C54.3475 50.3552 59.743 56.1249 59.743 62.7016L59.7428 74.7946Z" fill="black"/>
<path d="M64.7683 56.75C72.5487 56.75 78.5574 61.7669 78.5574 67.625C78.5571 73.4829 72.5485 78.499 64.7683 78.499C56.9883 78.4989 50.9805 73.4828 50.9802 67.625C50.9802 61.767 56.9881 56.7502 64.7683 56.75Z" fill="white" stroke="black" stroke-width="1.5"/>
<path d="M57.9376 72V70.6705L61.0441 67.794C61.3083 67.5384 61.5299 67.3082 61.7089 67.1037C61.8907 66.8991 62.0285 66.6989 62.1223 66.5028C62.216 66.304 62.2629 66.0895 62.2629 65.8594C62.2629 65.6037 62.2047 65.3835 62.0882 65.1989C61.9717 65.0114 61.8126 64.8679 61.6109 64.7685C61.4092 64.6662 61.1805 64.6151 60.9248 64.6151C60.6578 64.6151 60.4248 64.669 60.226 64.777C60.0271 64.8849 59.8737 65.0398 59.7657 65.2415C59.6578 65.4432 59.6038 65.6832 59.6038 65.9616H57.8524C57.8524 65.3906 57.9816 64.8949 58.2402 64.4744C58.4987 64.054 58.8609 63.7287 59.3268 63.4986C59.7927 63.2685 60.3297 63.1534 60.9376 63.1534C61.5626 63.1534 62.1066 63.2642 62.5697 63.4858C63.0356 63.7045 63.3978 64.0085 63.6564 64.3977C63.9149 64.7869 64.0441 65.233 64.0441 65.7358C64.0441 66.0653 63.9788 66.3906 63.8481 66.7116C63.7203 67.0327 63.4916 67.3892 63.162 67.7812C62.8325 68.1705 62.368 68.6378 61.7686 69.1832L60.4944 70.4318V70.4915H64.1592V72H57.9376ZM65.1766 70.4659V69.0128L68.8201 63.2727H70.0729V65.2841H69.3314L67.0346 68.919V68.9872H72.2121V70.4659H65.1766ZM69.3655 72V70.0227L69.3996 69.3793V63.2727H71.1297V72H69.3655Z" fill="black"/>
</svg>
