<svg width="370" height="27" viewBox="0 0 370 27" fill="none" xmlns="http://www.w3.org/2000/svg">
<path d="M0.5 3.1103C0.5 1.94481 1.45543 1 2.6329 1H38.3671C39.5451 1 40.5 1.94459 40.5 3.1103V23.7355C40.5 24.901 39.5446 25.8458 38.3671 25.8458H2.6329C1.45493 25.8458 0.5 24.9012 0.5 23.7355V3.1103ZM28.474 8.52693C27.9102 8.31772 27.0267 8.09321 25.9234 8.09321C23.1115 8.09321 21.1307 9.49381 21.1138 11.5011C21.098 12.985 22.5279 13.8128 23.6074 14.3067C24.7151 14.8129 25.0875 15.1357 25.0822 15.5877C25.0752 16.2799 24.1976 16.5961 23.3797 16.5961C22.2406 16.5961 21.6355 16.4396 20.7009 16.054L20.3342 15.8899L19.9348 18.2017C20.5995 18.4899 21.8286 18.7397 23.1048 18.7526C26.0962 18.7526 28.0382 17.368 28.0603 15.2245C28.071 14.0498 27.3128 13.1557 25.671 12.4188C24.6763 11.941 24.0671 11.6223 24.0736 11.1385C24.0736 10.7093 24.5892 10.2503 25.7033 10.2503C26.6339 10.236 27.308 10.4367 27.8332 10.6459L28.0882 10.7651L28.474 8.52693ZM35.7714 8.28254H33.5725C32.8912 8.28254 32.3815 8.46643 32.0823 9.1389L27.8559 18.6026H30.8442C30.8442 18.6026 31.3328 17.3302 31.4433 17.0508C31.7699 17.0508 34.6729 17.0552 35.0879 17.0552C35.173 17.4167 35.4342 18.6026 35.4342 18.6026H38.0748L35.7714 8.28254ZM32.2623 14.9386C32.4976 14.3436 33.3961 12.0519 33.3961 12.0519C33.3793 12.0794 33.6297 11.454 33.7734 11.0663L33.9658 11.9566C33.9658 11.9566 34.5107 14.4216 34.6246 14.9385H32.2623V14.9386ZM15.308 18.5993H18.1526L19.9331 8.27267H17.0873L15.308 18.5993ZM9.83805 13.8906L8.84035 9.14565C8.66808 8.49175 8.16845 8.29662 7.55037 8.27383H2.96152L2.9252 8.48869C4.04146 8.75595 5.03965 9.1416 5.91444 9.62134L8.44451 18.5904L11.4554 18.587L15.9357 8.28021H12.9212L10.1351 15.3222L9.83821 13.8911C9.83816 13.891 9.83811 13.8908 9.83805 13.8906Z" fill="white"/>
<path d="M93.0439 1H57.9561C56.5997 1 55.5 1.99829 55.5 3.22975V23.616C55.5 24.8475 56.5997 25.8458 57.9561 25.8458H93.0439C94.4003 25.8458 95.5 24.8475 95.5 23.616V3.22975C95.5 1.99829 94.4003 1 93.0439 1Z" fill="white" stroke="white" stroke-width="1.03448"/>
<path fill-rule="evenodd" clip-rule="evenodd" d="M74.4083 17.1193V14.0406L76.0913 14.0399C76.7852 14.0404 77.3683 13.8246 77.8408 13.3927C78.3182 12.9827 78.5851 12.3933 78.5715 11.779C78.581 11.168 78.3145 10.583 77.8408 10.1743C77.3725 9.74006 76.7427 9.5031 76.0913 9.51614H73.3896V17.1193H74.4083ZM74.4083 13.1063V10.4522L76.1166 10.4516C76.4974 10.4413 76.8644 10.5883 77.1245 10.855C77.3863 11.099 77.5339 11.4341 77.5339 11.7841C77.5339 12.1341 77.3863 12.4693 77.1245 12.7132C76.8612 12.9744 76.4953 13.1171 76.1166 13.1063H74.4083Z" fill="black"/>
<path fill-rule="evenodd" clip-rule="evenodd" d="M82.7021 12.3258C82.2664 11.9399 81.6721 11.7471 80.9191 11.7471C79.9519 11.7471 79.2215 12.0867 78.728 12.7662L79.6252 13.308C79.9568 12.8477 80.407 12.6176 80.9761 12.6176C81.3388 12.6136 81.6899 12.7407 81.9593 12.9737C82.2279 13.1866 82.3824 13.5041 82.3801 13.8382V14.0615C81.9886 13.8491 81.4905 13.7429 80.8856 13.7429C80.177 13.7438 79.6105 13.9031 79.1861 14.221C78.7618 14.5389 78.5496 14.967 78.5496 15.5053C78.5404 15.9954 78.7621 16.4635 79.1532 16.7793C79.5556 17.119 80.0557 17.2889 80.6534 17.2889C81.3536 17.2889 81.9146 16.9916 82.3364 16.3971H82.3807V17.119H83.355V13.9128C83.3555 13.2406 83.1378 12.7116 82.7021 12.3258ZM79.939 16.1635C79.7257 16.016 79.5998 15.7787 79.6012 15.5265C79.6012 15.2432 79.7397 15.0073 80.0188 14.8131C80.295 14.6218 80.6401 14.5262 81.0539 14.5262C81.6221 14.5262 82.065 14.6474 82.3826 14.8901C82.3826 15.3002 82.2139 15.6575 81.8764 15.9621C81.5725 16.2535 81.1604 16.4176 80.7306 16.4183C80.444 16.4234 80.1644 16.3335 79.939 16.1635Z" fill="black"/>
<path fill-rule="evenodd" clip-rule="evenodd" d="M88.9484 11.917L85.5469 19.4122H84.4953L85.7576 16.7896L83.521 11.917H84.6282L86.2448 15.654H86.2669L87.8392 11.917H88.9484Z" fill="black"/>
<path fill-rule="evenodd" clip-rule="evenodd" d="M70.292 13.3766C70.2924 13.0789 70.2662 12.7817 70.2136 12.4883H65.9175V14.1709H68.3781C68.2764 14.7139 67.9477 15.1935 67.4682 15.4985V16.5907H68.9368C69.7967 15.8304 70.292 14.7061 70.292 13.3766Z" fill="#4285F4"/>
<path fill-rule="evenodd" clip-rule="evenodd" d="M65.9174 17.6455C67.1468 17.6455 68.1819 17.2583 68.9367 16.5909L67.4682 15.4987C67.0595 15.7645 66.5331 15.9161 65.9174 15.9161C64.7292 15.9161 63.7206 15.148 63.36 14.1128H61.8472V15.2384C62.6204 16.7141 64.1953 17.6454 65.9174 17.6455Z" fill="#34A853"/>
<path fill-rule="evenodd" clip-rule="evenodd" d="M63.3602 14.1138C63.1695 13.5714 63.1695 12.9839 63.3602 12.4415V11.3159H61.8474C61.2006 12.5502 61.2006 14.0051 61.8474 15.2394L63.3602 14.1138Z" fill="#FBBC04"/>
<path fill-rule="evenodd" clip-rule="evenodd" d="M65.9174 10.6383C66.5671 10.6281 67.1948 10.8635 67.665 11.2936L68.9652 10.0467C68.1407 9.30408 67.0484 8.89635 65.9174 8.90898C64.1953 8.90904 62.6204 9.84041 61.8472 11.316L63.36 12.4416C63.7206 11.4065 64.7292 10.6383 65.9174 10.6383Z" fill="#EA4335"/>
<path d="M148.044 1H112.956C111.6 1 110.5 1.99829 110.5 3.22975V23.616C110.5 24.8475 111.6 25.8458 112.956 25.8458H148.044C149.4 25.8458 150.5 24.8475 150.5 23.616V3.22975C150.5 1.99829 149.4 1 148.044 1Z" fill="white" stroke="#F3F3F3" stroke-width="1.03448"/>
<path fill-rule="evenodd" clip-rule="evenodd" d="M132.982 14.4044H132.303C132.236 14.4011 132.183 14.3503 132.182 14.2882V11.0488C132.189 10.9872 132.246 10.9411 132.313 10.9426H132.945C133.003 10.9443 133.052 10.9814 133.066 11.0331V11.5285H133.079C133.27 11.0856 133.537 10.8745 134.007 10.8745C134.312 10.8745 134.61 10.9767 134.802 11.256C134.98 11.5151 134.98 11.9513 134.98 12.2647V14.3027C134.97 14.3621 134.914 14.4056 134.85 14.4044H134.164C134.103 14.4019 134.052 14.3591 134.044 14.3027V12.5439C134.044 12.5164 134.044 12.4878 134.044 12.4586C134.048 12.1123 134.052 11.6715 133.617 11.6715C133.443 11.679 133.288 11.7803 133.223 11.9307C133.128 12.1284 133.115 12.3261 133.115 12.545V14.2882C133.113 14.3539 133.053 14.4056 132.982 14.4044ZM130.105 10.879C131.117 10.879 131.664 11.6832 131.664 12.7053C131.664 13.6933 131.061 14.477 130.105 14.477C129.113 14.477 128.573 13.6727 128.573 12.6713C128.573 11.6699 129.12 10.879 130.105 10.879ZM130.112 11.5403C129.61 11.5403 129.578 12.1736 129.578 12.5691V12.5821C129.578 12.9828 129.578 13.8089 130.105 13.8089C130.639 13.8089 130.659 13.1276 130.659 12.7121C130.659 12.4395 130.646 12.1122 130.557 11.8536C130.48 11.6302 130.328 11.5403 130.112 11.5403ZM117.516 14.4111H116.835C116.772 14.408 116.721 14.3626 116.715 14.3043V11.065C116.717 11 116.775 10.9487 116.845 10.9494H117.48C117.545 10.9527 117.597 11.0008 117.601 11.0611V11.4839H117.613C117.779 11.0745 118.09 10.884 118.51 10.884C118.93 10.884 119.203 11.0745 119.394 11.4839C119.522 11.1688 119.823 10.942 120.182 10.8904C120.541 10.839 120.902 10.9708 121.127 11.2353C121.312 11.4685 121.306 11.7933 121.3 12.0984C121.299 12.1499 121.299 12.2009 121.299 12.2507V14.2943C121.298 14.3259 121.284 14.3561 121.259 14.378C121.234 14.3999 121.201 14.4118 121.167 14.4111H120.486C120.419 14.4078 120.367 14.357 120.366 14.2948V12.578C120.366 12.552 120.366 12.5185 120.367 12.4804C120.369 12.3193 120.372 12.0763 120.346 11.9714C120.296 11.7536 120.143 11.6922 119.946 11.6922C119.765 11.6973 119.605 11.8016 119.539 11.9575C119.474 12.1099 119.474 12.3554 119.475 12.5372L119.475 12.578V14.2943C119.474 14.3259 119.46 14.3559 119.436 14.3777C119.411 14.3997 119.378 14.4116 119.344 14.4111H118.661C118.595 14.4075 118.542 14.3568 118.541 14.2948V12.578C118.541 12.5428 118.541 12.5061 118.542 12.4683C118.547 12.1181 118.554 11.6844 118.119 11.6844C117.648 11.6844 117.648 12.178 117.648 12.5511V12.578V14.2943C117.648 14.3259 117.633 14.3561 117.609 14.378C117.584 14.3999 117.55 14.4118 117.516 14.4111ZM115.489 14.4507C115.541 14.4777 115.606 14.4716 115.65 14.4356L115.656 14.4368C115.792 14.3245 116.039 14.1256 116.178 14.0179C116.231 13.9759 116.222 13.9062 116.178 13.8503C116.165 13.8334 116.152 13.8168 116.138 13.8004C116.027 13.6618 115.921 13.5301 115.921 13.2655V12.2831C115.921 12.2516 115.921 12.2203 115.921 12.1891V12.1885C115.923 11.8091 115.925 11.4619 115.619 11.1968C115.359 10.9644 114.926 10.8829 114.594 10.8829C113.946 10.8829 113.222 11.1068 113.071 11.8486C113.064 11.8786 113.072 11.9097 113.091 11.9346C113.11 11.9595 113.139 11.976 113.172 11.9804L113.827 12.0468C113.891 12.0378 113.94 11.9902 113.947 11.9307C114.004 11.6754 114.236 11.552 114.496 11.552C114.637 11.552 114.795 11.5994 114.878 11.7156C114.963 11.8323 114.962 11.9871 114.961 12.1262C114.961 12.1422 114.961 12.1581 114.961 12.1736V12.2552C114.899 12.2616 114.834 12.2678 114.767 12.2741C114.407 12.3081 113.991 12.3474 113.68 12.4741C113.258 12.645 112.956 12.9929 112.956 13.5051C112.956 14.1608 113.402 14.4887 113.976 14.4887C114.46 14.4887 114.725 14.3831 115.099 14.0301C115.117 14.0545 115.134 14.077 115.149 14.0982C115.238 14.2216 115.296 14.302 115.489 14.4507ZM114.964 12.9281L114.964 12.8975V12.7618C114.471 12.7618 113.95 12.8595 113.95 13.3968C113.95 13.6705 114.103 13.8547 114.364 13.8547C114.556 13.8547 114.728 13.7453 114.836 13.5677C114.964 13.3573 114.964 13.1603 114.964 12.9281ZM125.107 13.848C125.093 13.8311 125.08 13.8145 125.067 13.798C124.955 13.6594 124.849 13.5279 124.849 13.2639V12.2809C124.849 12.2473 124.849 12.2139 124.85 12.1808C124.852 11.8034 124.854 11.4584 124.548 11.1945C124.287 10.9622 123.854 10.8806 123.523 10.8806C122.874 10.8806 122.151 11.1041 121.999 11.8463C121.992 11.8765 121.999 11.9079 122.019 11.9329C122.038 11.9579 122.068 11.9745 122.101 11.9787L122.761 12.0446C122.825 12.0354 122.874 11.9879 122.882 11.9284C122.939 11.6732 123.169 11.5497 123.429 11.5497C123.57 11.5497 123.731 11.5978 123.811 11.714C123.897 11.8302 123.896 11.985 123.895 12.1241C123.895 12.1401 123.895 12.1559 123.895 12.1714V12.2512C123.834 12.2575 123.77 12.2635 123.705 12.2696C123.344 12.3034 122.926 12.3425 122.614 12.4696C122.187 12.6406 121.887 12.9885 121.887 13.5012C121.887 14.1563 122.333 14.4842 122.907 14.4842C123.389 14.4842 123.656 14.3786 124.03 14.0256C124.047 14.0495 124.063 14.0716 124.078 14.0923C124.169 14.2174 124.227 14.2969 124.42 14.4462C124.472 14.473 124.536 14.4672 124.582 14.4317C124.717 14.32 124.964 14.1206 125.104 14.0128C125.162 13.9743 125.153 13.9062 125.107 13.848ZM123.768 13.5649C123.66 13.742 123.488 13.8514 123.296 13.8514C123.035 13.8514 122.883 13.6671 122.883 13.394C122.883 12.8561 123.403 12.759 123.896 12.759V12.8952V12.9203C123.896 13.1555 123.896 13.3534 123.768 13.5649ZM125.683 11.5151V11.0538C125.682 11.0222 125.695 10.9915 125.719 10.9693C125.743 10.947 125.776 10.9353 125.811 10.9371H128.05C128.084 10.936 128.117 10.9479 128.141 10.9699C128.165 10.9919 128.179 11.0223 128.179 11.0538V11.4509C128.179 11.5174 128.118 11.6045 128.01 11.7419L126.85 13.2756C127.281 13.2661 127.736 13.3259 128.127 13.5297C128.2 13.5654 128.246 13.6343 128.248 13.7101V14.2061C128.248 14.2742 128.168 14.353 128.083 14.3122C127.34 13.9586 126.458 13.9601 125.717 14.3161C125.639 14.3546 125.558 14.277 125.558 14.2088V13.7369C125.551 13.6257 125.58 13.515 125.641 13.4191L126.985 11.6319H125.813C125.779 11.6331 125.746 11.6213 125.721 11.5993C125.697 11.5771 125.683 11.5468 125.683 11.5151ZM137.518 11.3487C137.689 11.2089 137.885 11.0971 138.096 11.0181C138.296 10.9442 138.509 10.9064 138.725 10.9064C138.939 10.9027 139.151 10.9423 139.346 11.0225C139.531 11.1008 139.692 11.2188 139.817 11.3666C139.954 11.5303 140.054 11.7169 140.114 11.9161C140.186 12.1522 140.221 12.3968 140.218 12.6422C140.221 12.8928 140.184 13.1425 140.107 13.3828C140.043 13.5867 139.937 13.7776 139.796 13.9452C139.665 14.0977 139.499 14.221 139.31 14.306C139.111 14.3914 138.894 14.4337 138.675 14.4295C138.266 14.4357 137.87 14.2957 137.569 14.0385V15.5889C137.574 15.6254 137.561 15.6623 137.533 15.6883C137.505 15.7144 137.465 15.7266 137.426 15.7213H137.004C136.964 15.7266 136.924 15.7144 136.896 15.6883C136.868 15.6623 136.855 15.6254 136.861 15.5889V11.137C136.855 11.1006 136.868 11.0639 136.897 11.0379C136.925 11.0119 136.964 10.9996 137.004 11.0046H137.318C137.359 11.0011 137.4 11.0132 137.431 11.0382C137.462 11.0632 137.48 11.0989 137.482 11.137L137.518 11.3487ZM138.525 11.4347C138.179 11.4372 137.843 11.5441 137.568 11.7391V13.5822C137.873 13.7945 138.187 13.9004 138.511 13.9C139.167 13.9 139.496 13.4904 139.496 12.6713C139.496 11.8521 139.172 11.4403 138.525 11.4347ZM141.11 11.5978L141.163 11.581C141.503 11.4841 141.856 11.4333 142.211 11.4302C142.497 11.4306 142.697 11.4792 142.811 11.576C142.926 11.6728 142.983 11.8404 142.983 12.0787V12.5132C142.689 12.4433 142.387 12.4058 142.083 12.4015C141.664 12.4011 141.331 12.497 141.083 12.6891C140.835 12.8812 140.712 13.1381 140.712 13.4599C140.712 13.7596 140.813 13.9989 141.013 14.1775C141.213 14.3563 141.485 14.4457 141.827 14.4457C142.039 14.4448 142.249 14.4069 142.445 14.334C142.653 14.259 142.845 14.1517 143.013 14.0167L143.049 14.2351C143.051 14.2714 143.069 14.3054 143.098 14.3291C143.128 14.3529 143.167 14.3643 143.206 14.3607H143.513C143.553 14.3658 143.592 14.3535 143.62 14.3275C143.649 14.3015 143.662 14.2648 143.656 14.2284V11.9686C143.656 11.6067 143.549 11.3399 143.334 11.1683C143.12 10.9967 142.787 10.9108 142.334 10.9108C142.109 10.9108 141.885 10.9295 141.663 10.9667C141.47 10.9953 141.281 11.0442 141.099 11.1124C141.056 11.1262 141.016 11.1502 140.985 11.1823C140.962 11.2216 140.952 11.2666 140.956 11.3112V11.4883C140.956 11.5682 140.989 11.6079 141.049 11.6079C141.07 11.6075 141.09 11.6042 141.11 11.5978ZM142.492 13.8648C142.334 13.9193 142.167 13.9483 141.999 13.9503C141.813 13.9506 141.671 13.9056 141.57 13.8151C141.47 13.7246 141.42 13.5956 141.42 13.4281C141.42 13.0442 141.689 12.8522 142.228 12.8522C142.355 12.8524 142.483 12.8603 142.609 12.8757C142.736 12.8904 142.861 12.9112 142.985 12.9382V13.6135C142.835 13.7198 142.669 13.8045 142.492 13.8648ZM145.534 15.6018C145.702 15.4693 145.851 15.2508 145.98 14.9466L147.552 11.2426C147.578 11.1924 147.595 11.1386 147.602 11.0834C147.602 11.0309 147.569 11.0041 147.502 11.0041H147.102C147.047 10.9992 146.992 11.0107 146.945 11.0371C146.904 11.0787 146.875 11.1287 146.86 11.1828L145.895 13.7492L144.894 11.1828C144.879 11.1287 144.85 11.0787 144.809 11.0371C144.762 11.0107 144.707 10.9992 144.652 11.0041H144.223C144.157 11.0041 144.124 11.0309 144.124 11.0834C144.131 11.1386 144.147 11.1924 144.173 11.2426L145.549 14.3932L145.414 14.7283C145.333 14.9401 145.242 15.0857 145.142 15.165C145.022 15.2506 144.872 15.2928 144.72 15.284C144.656 15.2852 144.591 15.2808 144.528 15.2706C144.492 15.2636 144.456 15.2592 144.42 15.2577C144.349 15.2577 144.313 15.2996 144.313 15.3834V15.5554C144.309 15.6028 144.322 15.6502 144.349 15.6906C144.378 15.7227 144.419 15.7449 144.463 15.7537C144.596 15.7861 144.733 15.8018 144.87 15.8C145.144 15.8004 145.365 15.7343 145.534 15.6018Z" fill="#232F3E"/>
<path fill-rule="evenodd" clip-rule="evenodd" d="M126.803 16.4708C126.958 16.1137 127.303 15.3136 127.139 15.1197H127.141C126.977 14.9254 126.061 15.0274 125.648 15.0732L125.647 15.0734C125.522 15.0873 125.503 14.9862 125.615 14.913C126.348 14.4364 127.547 14.5727 127.686 14.7337C127.826 14.8946 127.648 16.0087 126.963 16.5406C126.857 16.6222 126.756 16.5786 126.803 16.4708ZM121.877 17.0216C123.472 17.0216 125.328 16.5551 126.607 15.6807V15.6824C126.819 15.5349 126.638 15.3181 126.422 15.403C125.026 15.9486 123.527 16.2334 122.012 16.2411C119.909 16.2411 117.876 15.707 116.231 14.8202C116.087 14.7426 115.979 14.8795 116.1 14.9795C117.684 16.3034 119.744 17.0317 121.877 17.0216Z" fill="#FF9900"/>
<path d="M202.833 25.8458H168.167C166.694 25.8458 165.5 24.7329 165.5 23.3612V3.48458C165.5 2.11288 166.694 1 168.167 1H202.833C204.306 1 205.5 2.11288 205.5 3.48458V23.3612C205.5 24.7329 204.306 25.8458 202.833 25.8458ZM181.091 11.6889C181.027 11.6899 180.97 11.7179 180.933 11.7613C180.891 11.8017 180.864 11.8566 180.863 11.9166C180.863 11.9384 180.972 12.2479 181.206 12.8825L181.71 14.2552L181.944 14.895C182.207 15.6128 182.345 15.9944 182.357 16.04C181.856 16.6156 181.38 17.2574 180.958 17.9324L180.916 18.0049C180.914 18.0132 180.913 18.0214 180.913 18.0308C180.913 18.1343 181.003 18.2192 181.116 18.2192C181.126 18.2192 181.136 18.2181 181.146 18.2171H181.144H182.498C182.631 18.2161 182.747 18.1508 182.812 18.0525L182.813 18.0515L187.293 12.0274C187.316 11.9994 187.33 11.9653 187.33 11.927C187.33 11.9218 187.33 11.9166 187.329 11.9114V11.9125C187.327 11.8514 187.301 11.7976 187.259 11.7572C187.222 11.7137 187.166 11.6858 187.102 11.6847H185.748C185.614 11.6858 185.498 11.751 185.432 11.8493L185.431 11.8504L183.564 14.4033L182.792 11.9477C182.751 11.7955 182.606 11.6847 182.433 11.6847C182.423 11.6847 182.414 11.6847 182.404 11.6858H182.406L181.091 11.6889ZM196.622 11.574C196.613 11.574 196.603 11.574 196.593 11.574C195.751 11.574 194.994 11.9146 194.472 12.4549L194.47 12.457C193.92 12.9881 193.581 13.7117 193.581 14.5089V14.5368V14.5358C193.579 14.5658 193.579 14.602 193.579 14.6372C193.579 15.1932 193.811 15.6994 194.189 16.0752L194.188 16.0742C194.581 16.4303 195.119 16.6497 195.711 16.6497C195.747 16.6497 195.783 16.6487 195.819 16.6477H195.813C196.188 16.6435 196.543 16.5721 196.868 16.4437L196.85 16.4499C197.178 16.335 197.456 16.1559 197.674 15.9282L197.677 15.9261C197.666 15.9851 197.653 16.0348 197.639 16.0824L197.641 16.0721C197.622 16.1301 197.61 16.1973 197.606 16.2667V16.2688C197.606 16.4427 197.682 16.5307 197.834 16.5307H199.047C199.057 16.5317 199.067 16.5317 199.079 16.5317C199.268 16.5317 199.422 16.394 199.433 16.2212V16.2201L200.153 11.9477C200.156 11.9353 200.158 11.9208 200.158 11.9063C200.158 11.8524 200.137 11.8027 200.101 11.7644C200.061 11.7137 199.998 11.6816 199.927 11.6816C199.926 11.6816 199.924 11.6816 199.923 11.6816H198.59C198.427 11.6816 198.323 11.8628 198.29 12.222C197.949 11.8172 197.424 11.5605 196.834 11.5605C196.76 11.5605 196.686 11.5646 196.613 11.5729L196.622 11.5719V11.574ZM176.663 11.574C176.654 11.574 176.643 11.574 176.632 11.574C175.791 11.574 175.034 11.9146 174.514 12.4549L174.512 12.457C173.962 12.9881 173.623 13.7117 173.623 14.5089V14.5368V14.5358C173.622 14.5658 173.621 14.6 173.621 14.6352C173.621 15.1921 173.853 15.6984 174.232 16.0742L174.231 16.0731C174.624 16.4292 175.162 16.6487 175.756 16.6487C175.791 16.6487 175.827 16.6477 175.862 16.6466H175.857C176.226 16.6415 176.576 16.57 176.894 16.4427L176.877 16.4489C177.209 16.3309 177.491 16.1528 177.719 15.9261L177.72 15.9251C177.679 16.0265 177.653 16.1445 177.65 16.2667V16.2688C177.65 16.4427 177.728 16.5307 177.879 16.5307H179.09C179.1 16.5317 179.11 16.5317 179.122 16.5317C179.311 16.5317 179.466 16.394 179.477 16.2212V16.2201L180.198 11.9477C180.2 11.9363 180.201 11.9239 180.201 11.9104C180.201 11.8555 180.18 11.8048 180.144 11.7665C180.104 11.7158 180.041 11.6837 179.97 11.6837C179.969 11.6837 179.968 11.6837 179.967 11.6837H178.633C178.47 11.6837 178.367 11.8649 178.334 12.2241C177.988 11.8203 177.459 11.5636 176.866 11.5636C176.794 11.5636 176.726 11.5677 176.657 11.574L176.666 11.5729L176.663 11.574ZM201.736 9.28193C201.73 9.28193 201.724 9.2809 201.718 9.2809C201.607 9.2809 201.516 9.36061 201.507 9.46103L200.364 16.2719C200.36 16.2874 200.357 16.305 200.357 16.3226C200.357 16.3754 200.38 16.4241 200.417 16.4593C200.458 16.5048 200.519 16.5328 200.588 16.5328H200.594H201.754C201.766 16.5338 201.778 16.5348 201.79 16.5348C201.974 16.5348 202.123 16.3961 202.123 16.2243C202.123 16.2232 202.123 16.2232 202.123 16.2222L203.263 9.52936C203.264 9.52211 203.264 9.51486 203.264 9.50658C203.264 9.4455 203.242 9.38856 203.206 9.34301V9.34405C203.167 9.30574 203.111 9.2809 203.05 9.2809C203.044 9.2809 203.039 9.2809 203.033 9.28193H201.736ZM188.769 9.28193C188.756 9.27986 188.74 9.27883 188.724 9.27883C188.538 9.27883 188.386 9.41858 188.382 9.59147L187.241 16.2708C187.239 16.2822 187.238 16.2947 187.238 16.3081C187.238 16.363 187.259 16.4127 187.293 16.451C187.332 16.5017 187.396 16.5338 187.467 16.5338H187.471H188.912H188.917C189.053 16.5338 189.167 16.4427 189.192 16.3226V16.3205L189.509 14.4219C189.519 14.336 189.564 14.2614 189.632 14.2097C189.706 14.1538 189.798 14.1165 189.897 14.1031H189.9C189.99 14.0875 190.093 14.0792 190.199 14.0782C190.292 14.0782 190.404 14.0834 190.533 14.0948C190.662 14.1062 190.744 14.1113 190.78 14.1113C190.833 14.1144 190.896 14.1155 190.958 14.1155C191.806 14.1155 192.577 13.8122 193.153 13.3152L193.151 13.3173C193.687 12.7873 194.017 12.0709 194.017 11.2831C194.017 11.224 194.014 11.1661 194.011 11.1071V11.1153C194.014 11.076 194.017 11.0305 194.017 10.9839C194.017 10.4662 193.75 10.0076 193.339 9.71777L193.334 9.71466C192.872 9.44032 192.309 9.27779 191.704 9.27779C191.654 9.27779 191.606 9.27883 191.557 9.2809H191.563L188.769 9.28193ZM168.789 9.28193C168.778 9.2809 168.766 9.27986 168.753 9.27986C168.569 9.27986 168.42 9.41858 168.42 9.59044V9.59251L167.278 16.2719C167.276 16.2833 167.274 16.2967 167.274 16.3102C167.274 16.364 167.296 16.4137 167.33 16.452C167.369 16.5027 167.432 16.5348 167.503 16.5348H167.508H168.841C168.854 16.5369 168.87 16.5379 168.886 16.5379C169.072 16.5379 169.224 16.3982 169.228 16.2253L169.544 14.425C169.554 14.3391 169.6 14.2646 169.667 14.2128C169.74 14.1569 169.832 14.1196 169.931 14.1062H169.934C170.023 14.0906 170.127 14.0823 170.232 14.0813H170.233C170.327 14.0813 170.438 14.0865 170.567 14.0979C170.696 14.1093 170.778 14.1144 170.813 14.1144C170.867 14.1175 170.928 14.1186 170.99 14.1186C171.838 14.1186 172.609 13.8153 173.187 13.3183L173.184 13.3204C173.72 12.7904 174.05 12.0729 174.05 11.2851C174.05 11.2261 174.048 11.1681 174.044 11.1102V11.1185C174.048 11.0791 174.05 11.0336 174.05 10.987C174.05 10.4694 173.783 10.0107 173.372 9.72087L173.368 9.71777C172.906 9.44343 172.342 9.27986 171.738 9.27986C171.691 9.27986 171.644 9.2809 171.598 9.28297H171.604L168.789 9.28193ZM196.549 15.3226C196.533 15.3236 196.514 15.3236 196.496 15.3236C196.2 15.3236 195.93 15.2242 195.72 15.0596L195.722 15.0607C195.527 14.8919 195.404 14.6517 195.404 14.3846C195.404 14.3691 195.404 14.3536 195.406 14.3381V14.3401C195.406 14.3308 195.406 14.3205 195.406 14.3101C195.406 13.9229 195.573 13.572 195.846 13.3173C196.113 13.0616 196.487 12.9032 196.9 12.9032H196.937H196.934C196.946 12.9032 196.959 12.9022 196.972 12.9022C197.271 12.9022 197.543 13.0047 197.752 13.1734L197.751 13.1724C197.952 13.3463 198.078 13.5947 198.078 13.8701C198.078 13.8867 198.078 13.9033 198.077 13.9198V13.9177V13.9426C198.077 14.3246 197.907 14.6704 197.632 14.9157C197.362 15.1662 196.989 15.3205 196.578 15.3205C196.569 15.3205 196.559 15.3205 196.55 15.3205L196.549 15.3226ZM176.572 15.3226C176.556 15.3236 176.537 15.3236 176.517 15.3236C176.226 15.3236 175.958 15.2242 175.753 15.0596L175.754 15.0607C175.564 14.8909 175.446 14.6517 175.446 14.3867C175.446 14.3701 175.446 14.3536 175.447 14.3381V14.3401C175.447 14.3308 175.447 14.3205 175.447 14.3101C175.447 13.9229 175.614 13.572 175.887 13.3173C176.154 13.0616 176.527 12.9032 176.94 12.9032H176.979H176.977C176.988 12.9032 177.001 12.9022 177.014 12.9022C177.313 12.9022 177.586 13.0047 177.794 13.1734L177.793 13.1724C177.994 13.3463 178.119 13.5947 178.119 13.8691C178.119 13.8857 178.119 13.9033 178.118 13.9198V13.9177V13.954C178.118 14.336 177.948 14.6797 177.673 14.925C177.399 15.1704 177.026 15.3226 176.613 15.3226C176.6 15.3226 176.586 15.3226 176.572 15.3226ZM189.802 12.6723L190.101 10.9218C190.11 10.8203 190.201 10.7416 190.311 10.7416C190.318 10.7416 190.324 10.7416 190.33 10.7427H190.646C190.666 10.7427 190.69 10.7416 190.713 10.7416C190.906 10.7416 191.096 10.754 191.281 10.7779L191.26 10.7758C191.432 10.8048 191.582 10.8772 191.7 10.9808C191.831 11.0967 191.912 11.2592 191.912 11.4404C191.912 11.4539 191.912 11.4673 191.911 11.4798V11.4777C191.917 11.517 191.92 11.5615 191.92 11.6081C191.92 11.929 191.768 12.2158 191.527 12.4104L191.526 12.4115C191.23 12.5699 190.876 12.6641 190.498 12.6641C190.451 12.6641 190.406 12.663 190.359 12.6599H190.366L189.804 12.6765L189.802 12.6723ZM169.826 12.6723L170.124 10.9218C170.133 10.8203 170.223 10.7416 170.333 10.7416C170.34 10.7416 170.347 10.7416 170.353 10.7427H170.686C170.728 10.7396 170.777 10.7375 170.826 10.7375C171.146 10.7375 171.449 10.8089 171.716 10.9352L171.704 10.93C171.914 11.0553 171.986 11.3214 171.916 11.723C171.903 12.0388 171.727 12.3131 171.462 12.4746L171.459 12.4767C171.077 12.6102 170.634 12.6879 170.172 12.6879C170.05 12.6879 169.929 12.6827 169.81 12.6713L169.826 12.6723Z" fill="white"/>
<path d="M231.778 18.9229V7.28649H239.074V8.79785H233.534V12.3433H238.693V13.849H233.534V17.4115H239.142V18.9229H231.778ZM242.982 13.741V18.9229H241.283V10.1956H242.913V11.616H243.021C243.222 11.1539 243.536 10.7827 243.964 10.5024C244.396 10.2221 244.94 10.0819 245.595 10.0819C246.19 10.0819 246.711 10.2069 247.158 10.4569C247.605 10.7032 247.951 11.0706 248.197 11.5592C248.444 12.0479 248.567 12.652 248.567 13.3717V18.9229H246.868V13.5763C246.868 12.9437 246.703 12.4494 246.374 12.0933C246.044 11.7335 245.591 11.5535 245.016 11.5535C244.622 11.5535 244.271 11.6388 243.964 11.8092C243.661 11.9797 243.421 12.2297 243.243 12.5592C243.069 12.885 242.982 13.2789 242.982 13.741ZM254.504 22.3774C253.811 22.3774 253.214 22.2865 252.714 22.1047C252.218 21.9229 251.813 21.6823 251.499 21.3831C251.184 21.0838 250.949 20.7562 250.794 20.4001L252.254 19.7979C252.357 19.9645 252.493 20.1407 252.663 20.3263C252.838 20.5157 253.072 20.6766 253.368 20.8092C253.667 20.9418 254.052 21.0081 254.521 21.0081C255.165 21.0081 255.697 20.8509 256.118 20.5365C256.538 20.2259 256.749 19.7297 256.749 19.0479V17.3319H256.641C256.538 17.5175 256.391 17.724 256.197 17.9513C256.008 18.1785 255.747 18.3755 255.413 18.5422C255.08 18.7088 254.646 18.7922 254.112 18.7922C253.423 18.7922 252.802 18.6312 252.249 18.3092C251.699 17.9835 251.264 17.5043 250.942 16.8717C250.624 16.2354 250.464 15.4532 250.464 14.5251C250.464 13.5971 250.622 12.8016 250.936 12.1388C251.254 11.4759 251.69 10.9683 252.243 10.616C252.796 10.26 253.423 10.0819 254.124 10.0819C254.665 10.0819 255.103 10.1729 255.436 10.3547C255.769 10.5327 256.029 10.741 256.214 10.9797C256.404 11.2183 256.55 11.4285 256.652 11.6104H256.777V10.1956H258.442V19.116C258.442 19.866 258.268 20.4816 257.919 20.9626C257.571 21.4437 257.099 21.7997 256.504 22.0308C255.913 22.2619 255.247 22.3774 254.504 22.3774ZM254.487 17.3831C254.976 17.3831 255.389 17.2694 255.726 17.0422C256.067 16.8111 256.324 16.4816 256.499 16.0535C256.677 15.6217 256.766 15.1047 256.766 14.5024C256.766 13.9153 256.679 13.3982 256.504 12.9513C256.33 12.5043 256.074 12.1558 255.737 11.9058C255.4 11.652 254.983 11.5251 254.487 11.5251C253.976 11.5251 253.55 11.6577 253.209 11.9229C252.868 12.1842 252.61 12.5403 252.436 12.991C252.266 13.4418 252.18 13.9456 252.18 14.5024C252.18 15.0744 252.268 15.5763 252.442 16.0081C252.616 16.4399 252.874 16.777 253.214 17.0194C253.559 17.2619 253.983 17.3831 254.487 17.3831ZM262.419 7.28649V18.9229H260.72V7.28649H262.419ZM264.705 18.9229V10.1956H266.403V18.9229H264.705ZM265.562 8.84899C265.267 8.84899 265.013 8.7505 264.801 8.55353C264.593 8.35278 264.489 8.11414 264.489 7.83762C264.489 7.55732 264.593 7.31868 264.801 7.12171C265.013 6.92096 265.267 6.82058 265.562 6.82058C265.858 6.82058 266.11 6.92096 266.318 7.12171C266.53 7.31868 266.636 7.55732 266.636 7.83762C266.636 8.11414 266.53 8.35278 266.318 8.55353C266.11 8.7505 265.858 8.84899 265.562 8.84899ZM275.229 12.3263L273.689 12.599C273.625 12.402 273.522 12.2145 273.382 12.0365C273.246 11.8585 273.06 11.7126 272.825 11.599C272.59 11.4854 272.297 11.4285 271.945 11.4285C271.464 11.4285 271.062 11.5365 270.74 11.7524C270.418 11.9645 270.257 12.2391 270.257 12.5763C270.257 12.8679 270.365 13.1028 270.581 13.2808C270.797 13.4588 271.145 13.6047 271.626 13.7183L273.013 14.0365C273.816 14.2221 274.414 14.5081 274.808 14.8944C275.202 15.2808 275.399 15.7827 275.399 16.4001C275.399 16.9229 275.248 17.3888 274.945 17.7979C274.645 18.2032 274.227 18.5213 273.689 18.7524C273.155 18.9835 272.536 19.099 271.831 19.099C270.854 19.099 270.056 18.8907 269.439 18.474C268.821 18.0535 268.443 17.4569 268.303 16.6842L269.945 16.4342C270.047 16.8622 270.257 17.1861 270.575 17.4058C270.893 17.6217 271.308 17.7297 271.82 17.7297C272.376 17.7297 272.821 17.6141 273.155 17.3831C273.488 17.1482 273.655 16.8622 273.655 16.5251C273.655 16.2524 273.553 16.0232 273.348 15.8376C273.147 15.652 272.839 15.5119 272.422 15.4172L270.945 15.0933C270.13 14.9077 269.528 14.6122 269.138 14.2069C268.751 13.8016 268.558 13.2884 268.558 12.6672C268.558 12.152 268.702 11.7013 268.99 11.3149C269.278 10.9285 269.676 10.6274 270.183 10.4115C270.691 10.1918 271.272 10.0819 271.928 10.0819C272.871 10.0819 273.613 10.2865 274.155 10.6956C274.696 11.1009 275.054 11.6444 275.229 12.3263ZM278.966 13.741V18.9229H277.267V7.28649H278.943V11.616H279.051C279.256 11.1463 279.568 10.7732 279.989 10.4967C280.409 10.2202 280.958 10.0819 281.636 10.0819C282.235 10.0819 282.758 10.205 283.205 10.4513C283.655 10.6975 284.004 11.0649 284.25 11.5535C284.5 12.0384 284.625 12.6444 284.625 13.3717V18.9229H282.926V13.5763C282.926 12.9361 282.761 12.4399 282.432 12.0876C282.102 11.7316 281.644 11.5535 281.057 11.5535C280.655 11.5535 280.295 11.6388 279.977 11.8092C279.663 11.9797 279.415 12.2297 279.233 12.5592C279.055 12.885 278.966 13.2789 278.966 13.741ZM287.386 14.0933C287.386 12.6691 287.574 11.3585 287.949 10.1615C288.324 8.96452 288.871 7.86035 289.591 6.84899H291.148C290.867 7.22399 290.606 7.68421 290.364 8.22967C290.121 8.77512 289.909 9.37361 289.727 10.0251C289.545 10.6729 289.403 11.3452 289.301 12.0422C289.199 12.7354 289.148 13.4191 289.148 14.0933C289.148 14.9948 289.237 15.9077 289.415 16.8319C289.593 17.7562 289.833 18.6141 290.136 19.4058C290.439 20.1975 290.777 20.8433 291.148 21.3433H289.591C288.871 20.3319 288.324 19.2278 287.949 18.0308C287.574 16.8338 287.386 15.5213 287.386 14.0933ZM294.831 7.28649V18.9229H293.075V7.28649H294.831ZM306.78 7.28649V18.9229H305.166L299.251 10.3888H299.143V18.9229H297.388V7.28649H299.013L304.933 15.8319H305.041V7.28649H306.78ZM312.472 14.0933C312.472 15.5213 312.284 16.8338 311.909 18.0308C311.534 19.2278 310.987 20.3319 310.267 21.3433H308.71C308.991 20.9683 309.252 20.5081 309.494 19.9626C309.737 19.4172 309.949 18.8206 310.131 18.1729C310.313 17.5213 310.455 16.8471 310.557 16.1501C310.659 15.4532 310.71 14.7675 310.71 14.0933C310.71 13.1956 310.621 12.2846 310.443 11.3604C310.265 10.4361 310.025 9.57815 309.722 8.78649C309.419 7.99482 309.081 7.34899 308.71 6.84899H310.267C310.987 7.86035 311.534 8.96452 311.909 10.1615C312.284 11.3585 312.472 12.6691 312.472 14.0933Z" fill="white"/>
<path d="M337.841 10.0819L337.443 11.4854H329.994L330.392 10.0819H337.841ZM334.216 18.9229L330.148 13.9854L330.136 12.8774H332.153C332.657 12.8774 333.083 12.7997 333.432 12.6444C333.78 12.4891 334.045 12.2638 334.227 11.9683C334.409 11.6691 334.5 11.3054 334.5 10.8774C334.5 10.241 334.311 9.73535 333.932 9.36035C333.553 8.98535 332.96 8.79785 332.153 8.79785H329.994L330.409 7.28649H332.153C333.093 7.28649 333.867 7.43611 334.477 7.73535C335.087 8.03459 335.542 8.44937 335.841 8.97967C336.14 9.50997 336.29 10.1217 336.29 10.8149C336.29 11.4323 336.167 11.991 335.92 12.491C335.674 12.991 335.282 13.3982 334.744 13.7126C334.206 14.027 333.5 14.2107 332.625 14.2638L332.574 14.2751L336.29 18.8263V18.9229H334.216ZM337.847 7.28649L337.443 8.70126L331.489 8.66717L331.892 7.28649H337.847Z" fill="white"/>
<path d="M345.534 7.28649V18.9229H343.778V7.28649H345.534ZM357.483 7.28649V18.9229H355.869L349.955 10.3888H349.847V18.9229H348.091V7.28649H349.716L355.636 15.8319H355.744V7.28649H357.483ZM360.044 18.9229V7.28649H364.192C365.093 7.28649 365.841 7.44179 366.436 7.7524C367.035 8.063 367.482 8.49293 367.777 9.04217C368.072 9.58762 368.22 10.2183 368.22 10.9342C368.22 11.6463 368.071 12.2732 367.771 12.8149C367.476 13.3528 367.029 13.7713 366.43 14.0706C365.836 14.3698 365.088 14.5194 364.186 14.5194H361.044V13.0081H364.027C364.595 13.0081 365.057 12.9266 365.413 12.7638C365.773 12.6009 366.036 12.3641 366.203 12.0535C366.37 11.7429 366.453 11.3698 366.453 10.9342C366.453 10.4948 366.368 10.1141 366.197 9.79217C366.031 9.4702 365.768 9.22399 365.408 9.05353C365.052 8.87929 364.584 8.79217 364.004 8.79217H361.8V18.9229H360.044ZM365.788 13.6729L368.663 18.9229H366.663L363.845 13.6729H365.788Z" fill="white"/>
</svg>
