<svg width="101" height="79" viewBox="0 0 101 79" fill="none" xmlns="http://www.w3.org/2000/svg">
<path d="M80.4248 62.8518C77.3144 62.8521 74.46 66.0377 74.46 70.426C74.46 74.8125 77.3145 78 80.4248 78.0002C83.5375 78.0002 86.3945 74.8121 86.3945 70.426C86.3945 66.0382 83.5376 62.8518 80.4248 62.8518Z" stroke="black" stroke-width="2"/>
<path d="M84.9316 13.1892H66.0742C65.6666 13.1894 65.0039 13.6779 65.0039 14.7361V52.7576C65.0039 54.5115 63.8137 56.3024 61.9346 56.3025H2.57031C2.16241 56.3025 1.50012 56.7918 1.5 57.8513V61.2996C1.5 62.356 2.161 62.8445 2.57031 62.8445H14.6006C16.4459 59.9455 19.3749 57.9783 22.7607 57.9783C26.1498 57.9784 29.0772 59.9458 30.9238 62.8445H72.2637C74.1105 59.9456 77.0406 57.9784 80.4248 57.9783C83.8124 57.9783 86.7411 59.9456 88.5879 62.8445H98.4316C98.8363 62.8445 99.5 62.3554 99.5 61.2996V34.6677C99.4999 34.3077 99.4089 33.9737 99.2607 33.7117L99.1943 33.6033L99.1924 33.6013L85.6934 13.6648L85.6924 13.6658C85.4548 13.315 85.163 13.1894 84.9316 13.1892ZM82.1904 18.2458C83.1564 18.2459 84.0069 18.7479 84.5703 19.5085L84.6787 19.6638V19.6648L93.2998 32.7263L93.3008 32.7292C93.7207 33.3693 93.9424 34.1459 93.9424 34.9314V36.6931C93.9424 38.4914 92.7241 40.3162 90.8086 40.3162H73.7461C71.8313 40.3162 70.6104 38.4924 70.6104 36.6931V21.8689C70.6105 20.0695 71.8315 18.2458 73.7461 18.2458H82.1904Z" stroke="black" stroke-width="2"/>
<path d="M22.7607 62.8518C19.6503 62.8518 16.7949 66.0375 16.7949 70.426C16.7949 74.8127 19.6503 78.0002 22.7607 78.0002C25.875 78 28.7305 74.812 28.7305 70.426C28.7305 66.0384 25.8751 62.8521 22.7607 62.8518Z" stroke="black" stroke-width="2"/>
<path d="M26.3269 21.728C26.6233 21.728 26.7934 21.827 26.9001 21.9478C27.0183 22.0815 27.1443 22.3419 27.1443 22.7915C27.1442 23.2227 27.0212 23.4785 26.9021 23.6128C26.7936 23.735 26.6212 23.8345 26.3269 23.8345H24.8416V21.728H26.3269Z" stroke="black" stroke-width="2"/>
<path d="M2.98047 1H58.6016C59.2343 1.00014 60.082 1.71442 60.082 3.05664V48.6592C60.082 49.9965 59.2351 50.7118 58.6016 50.7119H2.98047C2.34555 50.7118 1.5 49.997 1.5 48.6592V3.05664C1.50008 1.71375 2.3463 1.00015 2.98047 1ZM10.8008 16.6426C10.1116 16.6426 9.50029 16.9309 9.08594 17.459C8.69286 17.96 8.53811 18.5948 8.53809 19.2236V32.4082C8.53809 33.1515 8.73645 33.858 9.16309 34.4023C9.60252 34.9629 10.252 35.3027 10.9971 35.3027C11.7402 35.3027 12.3854 34.9577 12.8193 34.3994C13.2413 33.8565 13.4394 33.1516 13.4395 32.4082V28.5527H16.3467C17.0392 28.5527 17.6627 28.2838 18.0977 27.7715C18.5164 27.2782 18.6885 26.6462 18.6885 26.0215C18.6885 25.3974 18.5162 24.7662 18.0977 24.2734C17.6627 23.7617 17.0391 23.4922 16.3467 23.4922H13.4395V21.7275H17.3125C18.0083 21.7275 18.6215 21.4366 19.0469 20.9414C19.2779 20.6724 19.4383 20.3581 19.5371 20.0234V32.4082C19.5371 33.1508 19.7341 33.8576 20.1611 34.4023C20.6013 34.9639 21.2522 35.3027 21.998 35.3027C22.7453 35.3027 23.3924 34.96 23.8271 34.3955C24.2473 33.8499 24.4385 33.1451 24.4385 32.4082V28.8682H24.8662L26.8574 33.5762L26.8613 33.585C27.0774 34.0835 27.3774 34.5193 27.7891 34.832C28.213 35.1541 28.6997 35.3027 29.2002 35.3027C29.9664 35.3027 30.5976 34.9474 31.0107 34.4082C31.4069 33.8911 31.582 33.2398 31.582 32.6045C31.582 32.1477 31.5004 31.6695 31.3037 31.2119L31.3008 31.2061L31.2979 31.1992L29.6689 27.5557C30.9475 26.4315 31.6406 24.7186 31.6406 22.7656C31.6406 21.062 31.1256 19.5312 30.1367 18.4121C29.1379 17.2819 27.7154 16.6426 26.0625 16.6426H21.7998C21.1106 16.6426 20.4994 16.9309 20.085 17.459C19.8245 17.791 19.6694 18.182 19.5938 18.5908C19.5084 18.168 19.3325 17.7688 19.0508 17.4365C18.6251 16.9347 18.0098 16.6426 17.3125 16.6426H10.8008ZM34.1191 16.6426C33.4304 16.6426 32.8202 16.9317 32.4062 17.459C32.0133 17.9596 31.8575 18.5941 31.8574 19.2236V32.5811C31.8575 33.2096 32.0136 33.8436 32.4062 34.3438C32.8196 34.8702 33.4294 35.1611 34.1191 35.1611H40.6328C41.3287 35.1611 41.9436 34.8685 42.3691 34.3672C42.7832 33.8793 42.9755 33.2483 42.9756 32.6055C42.9756 31.9679 42.7803 31.3419 42.3652 30.8594C41.9395 30.3645 41.3259 30.0752 40.6328 30.0752H36.7578V28.3604H39.6846C40.3693 28.3602 40.9836 28.0842 41.4121 27.5801C41.8272 27.0917 42.0088 26.4622 42.0088 25.8271C42.0088 25.1937 41.8268 24.5655 41.4121 24.0781C40.9842 23.5752 40.3703 23.298 39.6846 23.2979H36.7578V21.7275H40.6328C41.328 21.7275 41.9406 21.4358 42.3652 20.9414C42.7792 20.4594 42.9755 19.8345 42.9756 19.1982C42.9756 18.556 42.7828 17.9243 42.3691 17.4365C41.9442 16.9356 41.3295 16.6426 40.6328 16.6426H34.1191ZM45.2764 16.6426C44.5871 16.6427 43.975 16.9297 43.5596 17.458C43.1654 17.9593 43.0108 18.5949 43.0107 19.2236V32.5811C43.0108 33.2086 43.166 33.8429 43.5596 34.3438C43.9744 34.8714 44.5861 35.161 45.2764 35.1611H51.7871C52.4838 35.1611 53.0996 34.8689 53.5254 34.3662C53.9392 33.8776 54.1289 33.2466 54.1289 32.6055C54.1289 31.9694 53.9355 31.3437 53.5205 30.8604C53.0944 30.3642 52.481 30.0752 51.7871 30.0752H47.9121V28.3604H50.8418C51.5263 28.3604 52.1398 28.0831 52.5674 27.5791C52.9815 27.091 53.1631 26.4622 53.1631 25.8271C53.1631 25.1938 52.9809 24.5662 52.5674 24.0791C52.1405 23.5764 51.5272 23.2979 50.8418 23.2979H47.9121V21.7275H51.7871C52.4832 21.7275 53.0965 21.4363 53.5215 20.9404C53.9353 20.4576 54.1288 19.8328 54.1289 19.1982C54.1289 18.5576 53.9388 17.926 53.5254 17.4375C53.1001 16.9351 52.4847 16.6426 51.7871 16.6426H45.2764Z" fill="black" stroke="black" stroke-width="2"/>
</svg>
