<svg width="85" height="85" viewBox="0 0 85 85" fill="none" xmlns="http://www.w3.org/2000/svg">
<path d="M2.0686 59.0649H19.0279L30.3833 54.2476C30.5461 54.1783 30.7211 54.1428 30.8982 54.1428H51.6412C55.2763 54.1428 58.2332 57.1 58.2332 60.7348V63.5474C58.2332 64.1939 58.1397 64.8192 57.9653 65.4101L74.1961 58.3913C77.4884 56.9676 81.2593 58.3967 82.7815 61.6441L83.5903 63.3693C84.3504 64.991 84.4223 66.8073 83.7929 68.4841C83.1634 70.1609 81.9138 71.4815 80.2738 72.2022L68.3445 77.4458C67.6781 77.7392 66.9001 77.4359 66.607 76.7692C66.3139 76.1027 66.617 75.3248 67.2836 75.0317L79.2128 69.7881C80.1967 69.3558 80.9463 68.5634 81.3244 67.5574C81.7018 66.5514 81.6587 65.4615 81.2027 64.4884L80.3939 62.7633C79.4807 60.8146 77.2182 59.9576 75.2426 60.8115L53.9223 70.031C53.7572 70.1024 53.5789 70.1392 53.399 70.1392H51.6411H33.3592C32.631 70.1392 32.0407 69.5492 32.0407 68.8208C32.0407 68.0925 32.6308 67.5023 33.3592 67.5023H51.6412C53.8221 67.5023 55.5965 65.728 55.5965 63.5471V60.7345C55.5965 58.5536 53.8221 56.7793 51.6412 56.7793H31.1663L19.8109 61.5966C19.6481 61.6658 19.4731 61.7013 19.296 61.7013H3.38707V74.2627L21.0726 81.468C21.2315 81.5326 21.3989 81.5655 21.5703 81.5655H52.1417C52.3256 81.5655 52.5042 81.528 52.6722 81.454L63.0641 76.8862C63.7309 76.5933 64.5085 76.8962 64.8017 77.5626C65.0948 78.2291 64.7917 79.0072 64.1253 79.3002L53.7333 83.8681C53.2286 84.0899 52.6931 84.2023 52.1417 84.2023H21.5703C21.0565 84.2023 20.5546 84.1038 20.078 83.9099L1.57111 76.3699C1.07478 76.1678 0.750137 75.6851 0.750137 75.149V60.3827C0.750137 59.6552 1.34038 59.0649 2.0686 59.0649Z" fill="black"/>
<path d="M27.676 31.9132C27.8663 31.2103 28.5897 30.7947 29.2929 30.985C29.9957 31.1751 30.4113 31.8991 30.2212 32.602C29.9121 33.7441 29.7556 34.9294 29.7556 36.1248C29.7556 43.5401 35.7881 49.5726 43.2034 49.5726C50.6186 49.5726 56.6512 43.5401 56.6512 36.1248C56.6512 28.7096 50.6186 22.677 43.2034 22.677C38.8094 22.677 34.6829 24.8318 32.1652 28.4413C31.7488 29.0383 30.9272 29.1855 30.3297 28.7683C29.7325 28.3517 29.5862 27.5299 30.0027 26.9327C33.0132 22.6169 37.9481 20.0403 43.2034 20.0403C52.0725 20.0403 59.2881 27.2559 59.2881 36.125C59.2881 44.9941 52.0725 52.2097 43.2034 52.2097C34.3343 52.2097 27.1186 44.9941 27.1186 36.125C27.1185 34.6968 27.306 33.2799 27.676 31.9132Z" fill="black"/>
<path d="M38.2812 31.2907C37.553 31.2907 36.9627 30.7007 36.9627 29.9723C36.9627 29.244 37.5528 28.6538 38.2812 28.6538H41.8848V27.1595C41.8848 26.4313 42.4749 25.8411 43.2033 25.8411C43.9315 25.8411 44.5218 26.4311 44.5218 27.1595V28.6538H45.6644C47.3606 28.6538 48.7408 30.0339 48.7408 31.7302V34.5427C48.7408 36.239 47.3606 37.6191 45.6644 37.6191H44.5218V41.3107H48.1254C48.8536 41.3107 49.4438 41.9008 49.4438 42.6292C49.4438 43.3574 48.8538 43.9476 48.1254 43.9476H44.5218V45.4419C44.5218 46.1701 43.9317 46.7604 43.2033 46.7604C42.4751 46.7604 41.8848 46.1703 41.8848 45.4419V43.9476H40.7422C39.0459 43.9476 37.6658 42.5675 37.6658 40.8713V38.0587C37.6658 36.3625 39.0459 34.9823 40.7422 34.9823H41.8848V31.2907H38.2812ZM44.5218 34.9823H45.6644C45.9068 34.9823 46.1039 34.7853 46.1039 34.5429V31.7303C46.1039 31.4879 45.9068 31.2909 45.6644 31.2909H44.5218V34.9823ZM40.7423 37.6191C40.4999 37.6191 40.3029 37.8161 40.3029 38.0585V40.8711C40.3029 41.1135 40.4999 41.3105 40.7423 41.3105H41.885V37.6189L40.7423 37.6191Z" fill="black"/>
<path d="M1.89492 41.1462C2.79007 41.0272 5.04562 40.529 6.65617 38.4756C7.80064 37.0157 8.07512 35.4323 8.13695 34.6185C8.18909 33.9313 8.76223 33.3999 9.45164 33.3999C10.1411 33.3999 10.7142 33.9309 10.7663 34.6185C10.8282 35.4324 11.1028 37.0159 12.2471 38.4756C13.8577 40.529 16.1134 41.0273 17.0084 41.1462C17.6637 41.2332 18.1533 41.7921 18.1533 42.4532C18.1533 43.1143 17.6637 43.673 17.0084 43.7601C16.1132 43.8792 13.8577 44.3774 12.2471 46.4308C11.1028 47.8907 10.8282 49.4741 10.7663 50.2878C10.7142 50.9751 10.1411 51.5065 9.45164 51.5065C8.76223 51.5065 8.18909 50.9754 8.13695 50.2878C8.07512 49.4739 7.80047 47.8907 6.65633 46.431C5.04562 44.3772 2.79007 43.879 1.89492 43.7601C1.23956 43.6731 0.749962 43.1143 0.749962 42.4532C0.749962 41.7921 1.23956 41.2334 1.89492 41.1462ZM8.73148 44.804C9.00563 45.1538 9.24442 45.5075 9.45181 45.86C9.65935 45.5074 9.89798 45.1536 10.1723 44.8038C10.9997 43.7488 11.9473 42.9936 12.8725 42.4532C11.947 41.9128 10.9997 41.1576 10.1723 40.1026C9.89782 39.7526 9.65919 39.3989 9.45181 39.0464C9.24426 39.399 9.00563 39.7528 8.73131 40.1026C7.90392 41.1578 6.95631 41.9129 6.03106 42.4532C6.95663 42.9936 7.90408 43.749 8.73148 44.804Z" fill="black"/>
<path d="M34.9436 7.74634C35.8387 7.62727 38.0943 7.12912 39.7048 5.07569C40.8491 3.61579 41.1238 2.03238 41.1856 1.21864C41.2376 0.531202 41.8107 0 42.5001 0C43.1896 0 43.7627 0.531037 43.8148 1.21864C43.8767 2.03255 44.1513 3.61595 45.2956 5.07569C46.9062 7.12912 49.1619 7.62743 50.0569 7.74634C50.7121 7.8335 51.2017 8.39217 51.2017 9.05329C51.2017 9.71441 50.7121 10.2731 50.0567 10.3602C49.1616 10.4793 46.906 10.9775 45.2955 13.0309C44.1511 14.4908 43.8765 16.0742 43.8147 16.8879C43.7625 17.5752 43.1894 18.1066 42.5 18.1066C41.8106 18.1066 41.2374 17.5755 41.1853 16.8879C41.1235 16.074 40.8488 14.4908 39.7047 13.0311C38.094 10.9773 35.8384 10.4791 34.9433 10.3602C34.2882 10.2731 33.7986 9.71441 33.7986 9.05329C33.7986 8.39217 34.2882 7.8335 34.9436 7.74634ZM41.7798 11.4041C42.054 11.7539 42.2928 12.1076 42.5001 12.4601C42.7077 12.1075 42.9463 11.7537 43.2206 11.4039C44.048 10.3489 44.9956 9.5937 45.9209 9.05329C44.9953 8.51288 44.048 7.75768 43.2206 6.70268C42.9462 6.35271 42.7075 5.99896 42.5001 5.64653C42.2926 5.99913 42.054 6.35288 41.7797 6.70268C40.9523 7.75785 40.0046 8.51304 39.0794 9.05329C40.005 9.5937 40.9524 10.3491 41.7798 11.4041Z" fill="black"/>
<path d="M67.9916 41.1462C68.8866 41.0272 71.1423 40.5289 72.7529 38.4756C73.8973 37.0157 74.1718 35.4323 74.2336 34.6185C74.2861 33.9311 74.8591 33.3999 75.5485 33.3999C76.2379 33.3999 76.811 33.9309 76.8632 34.6185C76.925 35.4324 77.1997 37.0159 78.3438 38.4754C79.9545 40.5292 82.2101 41.0273 83.1052 41.1462C83.7604 41.2334 84.25 41.7921 84.25 42.4532C84.25 43.1143 83.7604 43.673 83.105 43.7601C82.2099 43.8792 79.9543 44.3774 78.3438 46.4308C77.1995 47.8907 76.9248 49.4741 76.863 50.2878C76.8107 50.9751 76.2377 51.5065 75.5483 51.5065C74.8589 51.5065 74.2858 50.9754 74.2336 50.2878C74.1718 49.4739 73.8972 47.8907 72.753 46.431C71.1423 44.3772 68.8868 43.879 67.9916 43.7601C67.3362 43.6731 66.8466 43.1143 66.8466 42.4532C66.8466 41.7921 67.3362 41.2334 67.9916 41.1462ZM74.8282 44.804C75.1023 45.1538 75.3411 45.5075 75.5485 45.86C75.756 45.5074 75.9947 45.1536 76.269 44.8038C77.0964 43.7488 78.044 42.9936 78.9692 42.4532C78.0437 41.9128 77.0962 41.1574 76.2688 40.1024C75.9947 39.7526 75.7559 39.399 75.5485 39.0464C75.3411 39.399 75.1023 39.7526 74.8282 40.1024L74.828 40.1026C74.0006 41.1578 73.053 41.9129 72.1277 42.4532C73.0533 42.9936 74.0008 43.749 74.8282 44.804Z" fill="black"/>
</svg>
