<svg width="96" height="30" viewBox="0 0 96 30" fill="none" xmlns="http://www.w3.org/2000/svg">
<rect width="95" height="29" transform="translate(0.894043 0.605957)" fill="white"/>
<path d="M7.65967 18.6173V17.3744L12.0595 10.4241H13.0389V12.2537H12.4175L9.27046 17.2352V17.3148H15.301V18.6173H7.65967ZM12.4871 20.606V18.2395L12.497 17.6727V10.4241H13.9537V20.606H12.4871ZM17.6501 20.7004C17.3783 20.7004 17.1446 20.6043 16.9491 20.4121C16.7535 20.2165 16.6558 19.9812 16.6558 19.7061C16.6558 19.4343 16.7535 19.2023 16.9491 19.0101C17.1446 18.8145 17.3783 18.7168 17.6501 18.7168C17.9219 18.7168 18.1555 18.8145 18.3511 19.0101C18.5466 19.2023 18.6444 19.4343 18.6444 19.7061C18.6444 19.8884 18.598 20.0558 18.5052 20.2082C18.4157 20.3574 18.2964 20.4767 18.1472 20.5662C17.9981 20.6557 17.8324 20.7004 17.6501 20.7004ZM20.6156 20.606V19.4923L24.0609 15.9227C24.4288 15.5349 24.7321 15.1952 24.9707 14.9035C25.2127 14.6086 25.3933 14.3285 25.5127 14.0633C25.632 13.7982 25.6916 13.5165 25.6916 13.2182C25.6916 12.8801 25.6121 12.5884 25.453 12.3432C25.2939 12.0946 25.0768 11.904 24.8017 11.7714C24.5266 11.6355 24.2167 11.5676 23.872 11.5676C23.5074 11.5676 23.1893 11.6422 22.9175 11.7913C22.6457 11.9405 22.4369 12.1509 22.2911 12.4227C22.1452 12.6945 22.0723 13.0127 22.0723 13.3773H20.6057C20.6057 12.7575 20.7482 12.2156 21.0332 11.7516C21.3183 11.2875 21.7094 10.9279 22.2065 10.6727C22.7037 10.4142 23.2688 10.2849 23.9019 10.2849C24.5415 10.2849 25.105 10.4125 25.5922 10.6677C26.0827 10.9196 26.4655 11.2643 26.7406 11.7018C27.0157 12.136 27.1533 12.6266 27.1533 13.1734C27.1533 13.5513 27.082 13.9208 26.9395 14.2821C26.8003 14.6434 26.5567 15.0461 26.2087 15.4902C25.8607 15.931 25.3768 16.4663 24.757 17.096L22.7335 19.2139V19.2885H27.3173V20.606H20.6156Z" fill="black"/>
<path d="M40.3088 9.04082C40.4881 8.49997 40.5777 8.22956 40.7103 8.15461C40.825 8.08974 40.9631 8.08974 41.0779 8.15461C41.2104 8.22956 41.3 8.49997 41.4793 9.04082L42.6646 12.6163C42.7156 12.7703 42.7411 12.8472 42.7871 12.9046C42.8277 12.9552 42.8795 12.9947 42.938 13.0195C43.0041 13.0476 43.0818 13.0493 43.2372 13.0526L46.8463 13.1298C47.3923 13.1414 47.6652 13.1473 47.7742 13.2563C47.8685 13.3507 47.9111 13.4884 47.8877 13.6229C47.8608 13.7783 47.6432 13.9512 47.2081 14.2972L44.3314 16.584C44.2076 16.6825 44.1457 16.7318 44.1079 16.7953C44.0745 16.8515 44.0548 16.9153 44.0503 16.9813C44.0452 17.056 44.0677 17.1339 44.1127 17.29L45.1581 20.9132C45.3162 21.4612 45.3952 21.7353 45.33 21.8776C45.2736 22.0008 45.1618 22.0859 45.0326 22.1042C44.8834 22.1252 44.6593 21.9617 44.2111 21.6346L41.248 19.4725C41.1204 19.3795 41.0566 19.3329 40.9873 19.3148C40.9261 19.2989 40.862 19.2989 40.8008 19.3148C40.7315 19.3329 40.6677 19.3795 40.5401 19.4725L37.577 21.6346C37.1288 21.9617 36.9047 22.1252 36.7555 22.1042C36.6263 22.0859 36.5146 22.0008 36.4581 21.8776C36.3929 21.7353 36.4719 21.4612 36.6301 20.9132L37.6754 17.29C37.7204 17.1339 37.7429 17.056 37.7378 16.9813C37.7334 16.9153 37.7136 16.8515 37.6802 16.7953C37.6424 16.7318 37.5805 16.6825 37.4567 16.584L34.58 14.2972C34.1449 13.9512 33.9273 13.7783 33.9003 13.6229C33.8769 13.4884 33.9196 13.3507 34.0139 13.2563C34.1229 13.1473 34.3958 13.1414 34.9417 13.1298L38.5509 13.0526C38.7063 13.0493 38.784 13.0476 38.8502 13.0195C38.9086 12.9947 38.9604 12.9552 39.001 12.9046C39.047 12.8472 39.0725 12.7703 39.1235 12.6163L40.3088 9.04082Z" fill="#008000"/>
<path d="M55.9565 7.14289V23.8872H54.6242V7.14289H55.9565Z" fill="black"/>
<path d="M67.4281 20.7452C66.9741 20.7385 66.5266 20.6557 66.0858 20.4966C65.6483 20.3375 65.2506 20.0723 64.8926 19.7011C64.5347 19.3299 64.248 18.8311 64.0325 18.2047C63.8204 17.5783 63.7144 16.7961 63.7144 15.8581C63.7144 14.9698 63.8022 14.181 63.9778 13.4916C64.1568 12.8022 64.4137 12.2205 64.7484 11.7466C65.0832 11.2693 65.4876 10.9064 65.9615 10.6578C66.4355 10.4092 66.9674 10.2849 67.5574 10.2849C68.1639 10.2849 68.7025 10.4043 69.1732 10.6429C69.6438 10.8815 70.025 11.2113 70.3166 11.6322C70.6116 12.0532 70.7989 12.5321 70.8784 13.069H69.3621C69.2593 12.6448 69.0555 12.2984 68.7506 12.03C68.4457 11.7615 68.0479 11.6273 67.5574 11.6273C66.8117 11.6273 66.23 11.9521 65.8124 12.6017C65.3981 13.2513 65.1893 14.1545 65.1859 15.3112H65.2605C65.4362 15.0229 65.6516 14.7776 65.9068 14.5754C66.1653 14.3699 66.4537 14.2125 66.7719 14.1031C67.0934 13.9904 67.4314 13.9341 67.7861 13.9341C68.3761 13.9341 68.9097 14.0783 69.3869 14.3666C69.8675 14.6516 70.2503 15.0461 70.5354 15.5498C70.8204 16.0536 70.9629 16.6303 70.9629 17.28C70.9629 17.9296 70.8154 18.5179 70.5205 19.0449C70.2288 19.5719 69.8178 19.9895 69.2875 20.2977C68.7572 20.6026 68.1374 20.7518 67.4281 20.7452ZM67.4232 19.4525C67.8143 19.4525 68.1639 19.3564 68.4722 19.1642C68.7804 18.972 69.024 18.7134 69.203 18.3886C69.382 18.0638 69.4715 17.7009 69.4715 17.2998C69.4715 16.9088 69.3836 16.5525 69.208 16.231C69.0356 15.9095 68.797 15.6543 68.4921 15.4653C68.1904 15.2764 67.8457 15.182 67.458 15.182C67.163 15.182 66.8895 15.2383 66.6377 15.351C66.3891 15.4637 66.1703 15.6195 65.9814 15.8183C65.7925 16.0172 65.6433 16.2459 65.534 16.5044C65.4279 16.7596 65.3749 17.0297 65.3749 17.3148C65.3749 17.6959 65.4627 18.0489 65.6384 18.3737C65.8173 18.6985 66.0609 18.9604 66.3692 19.1592C66.6807 19.3548 67.0321 19.4525 67.4232 19.4525ZM76.1346 20.7452C75.5115 20.7452 74.9514 20.6258 74.4542 20.3872C73.9604 20.1453 73.566 19.8138 73.271 19.3929C72.976 18.972 72.8186 18.4914 72.7987 17.9511H74.2902C74.3266 18.3886 74.5205 18.7482 74.8718 19.03C75.2232 19.3117 75.6441 19.4525 76.1346 19.4525C76.5257 19.4525 76.8721 19.3631 77.1737 19.1841C77.4786 19.0018 77.7173 18.7516 77.8896 18.4334C78.0653 18.1152 78.1531 17.7523 78.1531 17.3446C78.1531 16.9303 78.0636 16.5607 77.8846 16.2359C77.7057 15.9111 77.4587 15.6559 77.1439 15.4703C76.8323 15.2847 76.4744 15.1902 76.07 15.1869C75.7618 15.1869 75.4519 15.24 75.1403 15.346C74.8288 15.4521 74.5769 15.5913 74.3846 15.7636L72.9777 15.5548L73.5494 10.4241H79.1474V11.7416H74.8271L74.504 14.5903H74.5636C74.7625 14.3981 75.026 14.2373 75.3541 14.1081C75.6855 13.9788 76.0402 13.9142 76.418 13.9142C77.0378 13.9142 77.5897 14.0617 78.0736 14.3567C78.5608 14.6516 78.9436 15.0543 79.222 15.5648C79.5037 16.0719 79.6429 16.6552 79.6396 17.3148C79.6429 17.9743 79.4938 18.5626 79.1922 19.0797C78.8939 19.5967 78.4796 20.0044 77.9493 20.3027C77.4223 20.5977 76.8174 20.7452 76.1346 20.7452ZM84.8411 10.2849C85.2952 10.2882 85.7426 10.3711 86.1835 10.5335C86.6243 10.6959 87.022 10.9611 87.3766 11.329C87.7346 11.6969 88.0196 12.194 88.2318 12.8204C88.4472 13.4436 88.5566 14.2191 88.5599 15.1472C88.5599 16.0387 88.4704 16.8325 88.2914 17.5285C88.1124 18.2213 87.8556 18.8062 87.5208 19.2835C87.1894 19.7608 86.7867 20.1237 86.3127 20.3723C85.8388 20.6209 85.3051 20.7452 84.7119 20.7452C84.1053 20.7452 83.5667 20.6258 83.0961 20.3872C82.6255 20.1486 82.2426 19.8188 81.9477 19.3979C81.6527 18.9736 81.4687 18.4864 81.3958 17.9362H82.9122C83.0116 18.3737 83.2138 18.7284 83.5187 19.0001C83.8269 19.2686 84.2247 19.4028 84.7119 19.4028C85.4576 19.4028 86.0393 19.078 86.4569 18.4284C86.8745 17.7755 87.085 16.864 87.0883 15.694H87.0087C86.8364 15.9791 86.621 16.2243 86.3624 16.4298C86.1072 16.6353 85.8205 16.7944 85.5024 16.9071C85.1842 17.0198 84.8444 17.0761 84.4832 17.0761C83.8965 17.0761 83.3629 16.932 82.8823 16.6436C82.4017 16.3552 82.0189 15.9592 81.7339 15.4554C81.4488 14.9516 81.3063 14.3766 81.3063 13.7302C81.3063 13.0873 81.4522 12.5039 81.7438 11.9802C82.0388 11.4566 82.4498 11.0423 82.9768 10.7373C83.5071 10.4291 84.1285 10.2783 84.8411 10.2849ZM84.8461 11.5775C84.4583 11.5775 84.1087 11.6737 83.7971 11.8659C83.4889 12.0548 83.2453 12.3117 83.0663 12.6365C82.8873 12.958 82.7978 13.3159 82.7978 13.7104C82.7978 14.1048 82.884 14.4627 83.0563 14.7842C83.232 15.1024 83.4706 15.356 83.7722 15.5449C84.0772 15.7305 84.4252 15.8233 84.8163 15.8233C85.1079 15.8233 85.3797 15.7669 85.6316 15.6543C85.8835 15.5416 86.1039 15.3858 86.2928 15.1869C86.4818 14.9847 86.6292 14.7561 86.7353 14.5008C86.8414 14.2456 86.8944 13.9772 86.8944 13.6954C86.8944 13.3209 86.8049 12.9729 86.6259 12.6514C86.4503 12.3299 86.2083 12.0714 85.9001 11.8758C85.5918 11.677 85.2405 11.5775 84.8461 11.5775Z" fill="black"/>
</svg>
