<svg width="20" height="21" viewBox="0 0 20 21" fill="none" xmlns="http://www.w3.org/2000/svg">
<path d="M10 1.24951L11.4302 6.56132C11.6047 7.20951 11.692 7.5336 11.8642 7.79856C12.0166 8.033 12.2165 8.23287 12.451 8.38531C12.7159 8.55751 13.04 8.64481 13.6882 8.81931L19 10.2495L13.6882 11.6797C13.04 11.8542 12.7159 11.9415 12.451 12.1137C12.2165 12.2661 12.0166 12.466 11.8642 12.7005C11.692 12.9654 11.6047 13.2895 11.4302 13.9377L10 19.2495L8.5698 13.9377C8.3953 13.2895 8.308 12.9654 8.1358 12.7005C7.98336 12.466 7.78349 12.2661 7.54905 12.1137C7.28409 11.9415 6.96 11.8542 6.31181 11.6797L1 10.2495L6.31181 8.81931C6.96 8.64481 7.28409 8.55751 7.54905 8.38531C7.78349 8.23287 7.98336 8.033 8.1358 7.79856C8.308 7.5336 8.3953 7.20951 8.5698 6.56132L10 1.24951Z" fill="black" stroke="black" stroke-width="2" stroke-linecap="round" stroke-linejoin="round"/>
</svg>
